# xmcd
# 
# Track frame offsets:
#   150
#   14682
#   32942
#   50587
#   70965
#   85187
#   106797
#   123407
#   137310
#   148167
#   162775
#   180797
#   193525
#   212085
#   232625
# 
# Disc length: 3337 seconds
# 
# Revision: 2
# Processed by: cddbd v1.5.2PL0 Copyright (c) Steve Scherf et al.
# Submitted via: Synapstar 1.0 
# 
DISCID=c30d070f
DTITLE=Various Artist - 70's And 80's Country Vol 15 8541
DYEAR=1900
DGENRE=Country
TTITLE0=Bellamy Brothers - Do You Love As Good As You Look
TTITLE1=Holly Dunn - Only When I Love
TTITLE2=Nitty Gritty Dirt Band - I've Been Looking
TTITLE3=Gene Watson - Paper Rosie
TTITLE4=John Anderson - Black Sheep
TTITLE5=Foster And Lloyd - Crazy Over You
TTITLE6=Don Williams - Walkin' A Broken Heart
TTITLE7=Johnny Russell - Rednecks White Socks And Blue Ribbon Beer
TTITLE8=Charlie Pride - Someone Loves You Honey
TTITLE9=Johnny Paycheck - Song And Dance Man
TTITLE10=Lee Greenwood - Fool's Gold
TTITLE11=Lacy J Dalton - Hard Times
TTITLE12=Exile - She's A Miracle
TTITLE13=Mac Davis - It's Hard To Be Humble
TTITLE14=Lacy J Dalton - Everybody Makes Mistakes
EXTD=MediaType: Karaoke CD+G Producer: Sound Choice
EXTT0=
EXTT1=
EXTT2=
EXTT3=
EXTT4=
EXTT5=
EXTT6=
EXTT7=
EXTT8=
EXTT9=
EXTT10=
EXTT11=
EXTT12=
EXTT13=
EXTT14=
PLAYORDER=
